# xmcd CD database file
#
# Track frame offsets:
#	225
#	29751
#	51746
#	79612
#	102434
#	128574
#	158776
#	181641
#	201595
#
# Disc length: 3176 seconds
#
# Revision: 0
# Processed by: cddbd v1.5.1PL0 Copyright (c) Steve Scherf et al.
# Submitted via: CDex 1.51
#
DISCID=7b0c6509
DTITLE=Travel Companion - Voyager
DYEAR=2002
DGENRE=New Age
TTITLE0=Seasons
TTITLE1=Travel Day
TTITLE2=Latino
TTITLE3=Voyager
TTITLE4=Easy way
TTITLE5=Summer 93
TTITLE6=Slowaltz
TTITLE7=I'Ultima volta
TTITLE8=Mother Africa
EXTD=YEAR: 2002
EXTT0=
EXTT1=
EXTT2=
EXTT3=
EXTT4=
EXTT5=
EXTT6=
EXTT7=
EXTT8=
PLAYORDER=
